<mxfile host="app.diagrams.net" modified="2022-02-23T23:18:53.289Z" agent="5.0 (Windows)" etag="ZoTTH4k1Lvenc3-Ogj87" version="16.4.5" type="github">
  <diagram id="ZsNC3ihXCfo3ElIL2VwX" name="Page-1">
    <mxGraphModel dx="790" dy="470" grid="1" gridSize="10" guides="1" tooltips="1" connect="1" arrows="1" fold="1" page="1" pageScale="1" pageWidth="3300" pageHeight="2339" math="0" shadow="0">
      <root>
        <mxCell id="0" />
        <mxCell id="1" parent="0" />
        <mxCell id="UF6QcyIX-ex_6rzBUD4a-37" value="" style="rounded=0;whiteSpace=wrap;html=1;shadow=1;fontFamily=Courier New;fontSize=20;" parent="1" vertex="1">
          <mxGeometry x="585" y="275" width="255" height="50" as="geometry" />
        </mxCell>
        <mxCell id="UF6QcyIX-ex_6rzBUD4a-78" value="&lt;div&gt;image_recieved&lt;/div&gt;&lt;div&gt;kernels_recieved&lt;/div&gt;&lt;div&gt;biases_recieved&lt;/div&gt;&lt;div&gt;result_transfered&lt;br&gt;&lt;/div&gt;" style="edgeStyle=orthogonalEdgeStyle;rounded=0;orthogonalLoop=1;jettySize=auto;html=1;fontFamily=Courier New;fontSize=14;strokeColor=#000000;strokeWidth=1;startArrow=classic;startFill=1;align=left;" parent="1" target="UF6QcyIX-ex_6rzBUD4a-4" edge="1">
          <mxGeometry x="-0.9513" y="-42" relative="1" as="geometry">
            <mxPoint x="303" y="498" as="sourcePoint" />
            <mxPoint as="offset" />
          </mxGeometry>
        </mxCell>
        <mxCell id="UF6QcyIX-ex_6rzBUD4a-28" style="edgeStyle=orthogonalEdgeStyle;rounded=0;orthogonalLoop=1;jettySize=auto;html=1;entryX=0.5;entryY=0;entryDx=0;entryDy=0;fontFamily=Courier New;fontSize=15;fillColor=#fff2cc;strokeColor=#d6b656;" parent="1" source="UF6QcyIX-ex_6rzBUD4a-15" target="UF6QcyIX-ex_6rzBUD4a-18" edge="1">
          <mxGeometry relative="1" as="geometry" />
        </mxCell>
        <mxCell id="UF6QcyIX-ex_6rzBUD4a-15" value="" style="rounded=1;whiteSpace=wrap;html=1;shadow=1;fontFamily=Courier New;fontSize=15;fillColor=#f8cecc;strokeColor=#b85450;" parent="1" vertex="1">
          <mxGeometry x="600" y="800" width="80" height="40" as="geometry" />
        </mxCell>
        <mxCell id="UF6QcyIX-ex_6rzBUD4a-27" style="edgeStyle=orthogonalEdgeStyle;rounded=0;orthogonalLoop=1;jettySize=auto;html=1;entryX=0.5;entryY=0;entryDx=0;entryDy=0;fontFamily=Courier New;fontSize=15;fillColor=#fff2cc;strokeColor=#d6b656;" parent="1" target="UF6QcyIX-ex_6rzBUD4a-15" edge="1">
          <mxGeometry relative="1" as="geometry">
            <mxPoint x="640" y="740" as="sourcePoint" />
          </mxGeometry>
        </mxCell>
        <mxCell id="UF6QcyIX-ex_6rzBUD4a-13" value="" style="rounded=1;whiteSpace=wrap;html=1;shadow=1;fontFamily=Courier New;fontSize=15;fillColor=#f8cecc;strokeColor=#b85450;" parent="1" vertex="1">
          <mxGeometry x="580" y="720" width="120" height="40" as="geometry" />
        </mxCell>
        <mxCell id="UF6QcyIX-ex_6rzBUD4a-1" value="" style="rounded=0;whiteSpace=wrap;html=1;shadow=1;" parent="1" vertex="1">
          <mxGeometry x="220" y="365" width="80" height="585" as="geometry" />
        </mxCell>
        <mxCell id="UF6QcyIX-ex_6rzBUD4a-2" value="&lt;font style=&quot;font-size: 26px&quot; face=&quot;Courier New&quot;&gt;FSM&lt;/font&gt;" style="text;html=1;resizable=0;autosize=1;align=center;verticalAlign=middle;points=[];fillColor=none;strokeColor=none;rounded=0;shadow=1;sketch=0;glass=0;" parent="1" vertex="1">
          <mxGeometry x="230" y="379" width="60" height="20" as="geometry" />
        </mxCell>
        <mxCell id="UF6QcyIX-ex_6rzBUD4a-20" value="" style="edgeStyle=orthogonalEdgeStyle;rounded=0;orthogonalLoop=1;jettySize=auto;html=1;fontFamily=Courier New;fontSize=15;fillColor=#fff2cc;strokeColor=#d6b656;" parent="1" source="UF6QcyIX-ex_6rzBUD4a-4" target="UF6QcyIX-ex_6rzBUD4a-9" edge="1">
          <mxGeometry relative="1" as="geometry" />
        </mxCell>
        <mxCell id="UF6QcyIX-ex_6rzBUD4a-4" value="" style="rounded=1;whiteSpace=wrap;html=1;shadow=1;fontFamily=Courier New;fontSize=26;fillColor=#f8cecc;strokeColor=#b85450;" parent="1" vertex="1">
          <mxGeometry x="590" y="475" width="100" height="45" as="geometry" />
        </mxCell>
        <mxCell id="UF6QcyIX-ex_6rzBUD4a-65" value="" style="edgeStyle=orthogonalEdgeStyle;rounded=0;orthogonalLoop=1;jettySize=auto;html=1;fontFamily=Courier New;fontSize=17;strokeColor=#000000;strokeWidth=1;" parent="1" source="UF6QcyIX-ex_6rzBUD4a-5" target="UF6QcyIX-ex_6rzBUD4a-60" edge="1">
          <mxGeometry relative="1" as="geometry" />
        </mxCell>
        <mxCell id="UF6QcyIX-ex_6rzBUD4a-5" value="&lt;font style=&quot;font-size: 15px&quot;&gt;conv2d_1&lt;/font&gt;" style="text;html=1;resizable=0;autosize=1;align=center;verticalAlign=middle;points=[];fillColor=none;strokeColor=none;rounded=0;shadow=1;fontFamily=Courier New;fontSize=26;" parent="1" vertex="1">
          <mxGeometry x="595" y="475" width="90" height="40" as="geometry" />
        </mxCell>
        <mxCell id="UF6QcyIX-ex_6rzBUD4a-8" value="" style="rounded=1;whiteSpace=wrap;html=1;shadow=1;fontFamily=Courier New;fontSize=26;fillColor=#f8cecc;strokeColor=#b85450;" parent="1" vertex="1">
          <mxGeometry x="590" y="590" width="100" height="45" as="geometry" />
        </mxCell>
        <mxCell id="UF6QcyIX-ex_6rzBUD4a-24" value="" style="edgeStyle=orthogonalEdgeStyle;rounded=0;orthogonalLoop=1;jettySize=auto;html=1;fontFamily=Courier New;fontSize=15;fillColor=#fff2cc;strokeColor=#d6b656;entryX=0.5;entryY=0;entryDx=0;entryDy=0;" parent="1" source="UF6QcyIX-ex_6rzBUD4a-9" edge="1" target="UF6QcyIX-ex_6rzBUD4a-13">
          <mxGeometry relative="1" as="geometry">
            <mxPoint x="640" y="670" as="targetPoint" />
            <Array as="points" />
          </mxGeometry>
        </mxCell>
        <mxCell id="UF6QcyIX-ex_6rzBUD4a-9" value="&lt;font style=&quot;font-size: 15px&quot;&gt;conv2d_2&lt;/font&gt;" style="text;html=1;resizable=0;autosize=1;align=center;verticalAlign=middle;points=[];fillColor=none;strokeColor=none;rounded=0;shadow=1;fontFamily=Courier New;fontSize=26;" parent="1" vertex="1">
          <mxGeometry x="595" y="592.5" width="90" height="40" as="geometry" />
        </mxCell>
        <mxCell id="UF6QcyIX-ex_6rzBUD4a-11" value="max_pool_2d" style="text;html=1;resizable=0;autosize=1;align=center;verticalAlign=middle;points=[];fillColor=none;strokeColor=none;rounded=0;shadow=1;fontFamily=Courier New;fontSize=15;" parent="1" vertex="1">
          <mxGeometry x="585" y="730" width="110" height="20" as="geometry" />
        </mxCell>
        <mxCell id="UF6QcyIX-ex_6rzBUD4a-14" value="dense_1" style="text;html=1;resizable=0;autosize=1;align=center;verticalAlign=middle;points=[];fillColor=none;strokeColor=none;rounded=0;shadow=1;fontFamily=Courier New;fontSize=15;" parent="1" vertex="1">
          <mxGeometry x="600" y="810" width="80" height="20" as="geometry" />
        </mxCell>
        <mxCell id="UF6QcyIX-ex_6rzBUD4a-71" style="edgeStyle=orthogonalEdgeStyle;rounded=0;orthogonalLoop=1;jettySize=auto;html=1;exitX=0.5;exitY=1;exitDx=0;exitDy=0;fontFamily=Courier New;fontSize=17;strokeColor=#d6b656;strokeWidth=1;fillColor=#fff2cc;entryX=0.75;entryY=1;entryDx=0;entryDy=0;" parent="1" source="UF6QcyIX-ex_6rzBUD4a-18" target="UF6QcyIX-ex_6rzBUD4a-57" edge="1">
          <mxGeometry relative="1" as="geometry" />
        </mxCell>
        <mxCell id="UF6QcyIX-ex_6rzBUD4a-18" value="" style="rounded=1;whiteSpace=wrap;html=1;shadow=1;fontFamily=Courier New;fontSize=15;fillColor=#f8cecc;strokeColor=#b85450;" parent="1" vertex="1">
          <mxGeometry x="600" y="900" width="80" height="40" as="geometry" />
        </mxCell>
        <mxCell id="UF6QcyIX-ex_6rzBUD4a-19" value="dense_2" style="text;html=1;resizable=0;autosize=1;align=center;verticalAlign=middle;points=[];fillColor=none;strokeColor=none;rounded=0;shadow=1;fontFamily=Courier New;fontSize=15;" parent="1" vertex="1">
          <mxGeometry x="600" y="910" width="80" height="20" as="geometry" />
        </mxCell>
        <mxCell id="UF6QcyIX-ex_6rzBUD4a-38" style="edgeStyle=orthogonalEdgeStyle;rounded=0;orthogonalLoop=1;jettySize=auto;html=1;exitX=0.1;exitY=1.033;exitDx=0;exitDy=0;fontFamily=Courier New;fontSize=19;strokeWidth=4;strokeColor=#d6b656;fillColor=#fff2cc;exitPerimeter=0;entryX=0.182;entryY=0;entryDx=0;entryDy=0;entryPerimeter=0;" parent="1" source="UF6QcyIX-ex_6rzBUD4a-29" target="UF6QcyIX-ex_6rzBUD4a-36" edge="1">
          <mxGeometry relative="1" as="geometry">
            <mxPoint x="650" y="275" as="targetPoint" />
          </mxGeometry>
        </mxCell>
        <mxCell id="UF6QcyIX-ex_6rzBUD4a-29" value="&lt;div&gt;&lt;b&gt;DMA&lt;/b&gt;&lt;/div&gt;&lt;div&gt;&lt;b&gt;(MicroBlaze softprocessor)&lt;br&gt;&lt;/b&gt;&lt;/div&gt;" style="rounded=0;whiteSpace=wrap;html=1;shadow=1;fontFamily=Courier New;fontSize=15;" parent="1" vertex="1">
          <mxGeometry x="585" y="195" width="535" height="40" as="geometry" />
        </mxCell>
        <mxCell id="UF6QcyIX-ex_6rzBUD4a-32" style="edgeStyle=orthogonalEdgeStyle;rounded=0;orthogonalLoop=1;jettySize=auto;html=1;entryX=0.5;entryY=0;entryDx=0;entryDy=0;fontFamily=Courier New;fontSize=30;strokeWidth=4;" parent="1" source="UF6QcyIX-ex_6rzBUD4a-30" target="UF6QcyIX-ex_6rzBUD4a-29" edge="1">
          <mxGeometry relative="1" as="geometry" />
        </mxCell>
        <mxCell id="UF6QcyIX-ex_6rzBUD4a-30" value="" style="rounded=0;whiteSpace=wrap;html=1;shadow=1;fontFamily=Courier New;fontSize=15;" parent="1" vertex="1">
          <mxGeometry x="585" y="80" width="535" height="60" as="geometry" />
        </mxCell>
        <mxCell id="UF6QcyIX-ex_6rzBUD4a-31" value="&lt;font style=&quot;font-size: 30px&quot;&gt;&lt;b&gt;DRAM&lt;/b&gt;&lt;/font&gt;" style="text;html=1;resizable=0;autosize=1;align=center;verticalAlign=middle;points=[];fillColor=none;strokeColor=none;rounded=0;shadow=1;fontFamily=Courier New;fontSize=15;" parent="1" vertex="1">
          <mxGeometry x="807.5" y="80" width="90" height="30" as="geometry" />
        </mxCell>
        <mxCell id="UF6QcyIX-ex_6rzBUD4a-36" value="&lt;div style=&quot;font-size: 19px&quot;&gt;&lt;font style=&quot;font-size: 19px&quot;&gt;Data&lt;/font&gt;&lt;/div&gt;&lt;div style=&quot;font-size: 19px&quot;&gt;&lt;font style=&quot;font-size: 19px&quot;&gt;Parallelizer&lt;br&gt;&lt;/font&gt;&lt;/div&gt;" style="text;html=1;strokeColor=none;fillColor=none;align=center;verticalAlign=middle;whiteSpace=wrap;rounded=0;shadow=1;fontFamily=Courier New;fontSize=20;" parent="1" vertex="1">
          <mxGeometry x="600" y="275" width="220" height="50" as="geometry" />
        </mxCell>
        <mxCell id="UF6QcyIX-ex_6rzBUD4a-40" value="" style="endArrow=classic;html=1;rounded=0;fontFamily=Courier New;fontSize=19;strokeColor=#6c8ebf;strokeWidth=4;fillColor=#dae8fc;" parent="1" edge="1">
          <mxGeometry width="50" height="50" relative="1" as="geometry">
            <mxPoint x="775" y="235" as="sourcePoint" />
            <mxPoint x="775" y="275" as="targetPoint" />
          </mxGeometry>
        </mxCell>
        <mxCell id="UF6QcyIX-ex_6rzBUD4a-45" style="edgeStyle=orthogonalEdgeStyle;rounded=0;orthogonalLoop=1;jettySize=auto;html=1;exitX=0.25;exitY=1;exitDx=0;exitDy=0;fontFamily=Courier New;fontSize=19;strokeWidth=2;strokeColor=#d6b656;fillColor=#fff2cc;" parent="1" target="UF6QcyIX-ex_6rzBUD4a-59" edge="1">
          <mxGeometry relative="1" as="geometry">
            <mxPoint x="639.6600000000001" y="325" as="sourcePoint" />
            <mxPoint x="640" y="355" as="targetPoint" />
          </mxGeometry>
        </mxCell>
        <mxCell id="UF6QcyIX-ex_6rzBUD4a-47" value="" style="endArrow=classic;html=1;rounded=0;fontFamily=Courier New;fontSize=19;strokeColor=#6c8ebf;strokeWidth=2;fillColor=#dae8fc;entryX=1;entryY=0.5;entryDx=0;entryDy=0;" parent="1" target="UF6QcyIX-ex_6rzBUD4a-4" edge="1">
          <mxGeometry width="50" height="50" relative="1" as="geometry">
            <mxPoint x="775" y="498" as="sourcePoint" />
            <mxPoint x="775" y="435" as="targetPoint" />
            <Array as="points">
              <mxPoint x="775" y="498" />
            </Array>
          </mxGeometry>
        </mxCell>
        <mxCell id="UF6QcyIX-ex_6rzBUD4a-50" value="" style="endArrow=classic;html=1;rounded=0;fontFamily=Courier New;fontSize=19;strokeColor=#6c8ebf;strokeWidth=2;fillColor=#dae8fc;entryX=0.998;entryY=0.578;entryDx=0;entryDy=0;entryPerimeter=0;" parent="1" target="UF6QcyIX-ex_6rzBUD4a-8" edge="1">
          <mxGeometry width="50" height="50" relative="1" as="geometry">
            <mxPoint x="775" y="435" as="sourcePoint" />
            <mxPoint x="690" y="594.5" as="targetPoint" />
            <Array as="points">
              <mxPoint x="775" y="616" />
            </Array>
          </mxGeometry>
        </mxCell>
        <mxCell id="UF6QcyIX-ex_6rzBUD4a-51" value="" style="endArrow=classic;html=1;rounded=0;fontFamily=Courier New;fontSize=19;strokeColor=#6c8ebf;strokeWidth=2;fillColor=#dae8fc;entryX=1.008;entryY=0.66;entryDx=0;entryDy=0;entryPerimeter=0;" parent="1" target="UF6QcyIX-ex_6rzBUD4a-14" edge="1">
          <mxGeometry width="50" height="50" relative="1" as="geometry">
            <mxPoint x="775" y="578" as="sourcePoint" />
            <mxPoint x="690" y="687.5" as="targetPoint" />
            <Array as="points">
              <mxPoint x="775" y="823" />
            </Array>
          </mxGeometry>
        </mxCell>
        <mxCell id="UF6QcyIX-ex_6rzBUD4a-52" value="" style="endArrow=classic;html=1;rounded=0;fontFamily=Courier New;fontSize=19;strokeColor=#6c8ebf;strokeWidth=2;fillColor=#dae8fc;entryX=0.993;entryY=0.46;entryDx=0;entryDy=0;entryPerimeter=0;" parent="1" target="UF6QcyIX-ex_6rzBUD4a-19" edge="1">
          <mxGeometry width="50" height="50" relative="1" as="geometry">
            <mxPoint x="775" y="728" as="sourcePoint" />
            <mxPoint x="690" y="837.5" as="targetPoint" />
            <Array as="points">
              <mxPoint x="775" y="794" />
              <mxPoint x="775" y="819" />
              <mxPoint x="775" y="919" />
            </Array>
          </mxGeometry>
        </mxCell>
        <mxCell id="UF6QcyIX-ex_6rzBUD4a-76" style="edgeStyle=orthogonalEdgeStyle;rounded=0;orthogonalLoop=1;jettySize=auto;html=1;entryX=0.762;entryY=1.041;entryDx=0;entryDy=0;entryPerimeter=0;fontFamily=Courier New;fontSize=17;strokeColor=#d79b00;strokeWidth=5;fillColor=#ffe6cc;" parent="1" source="UF6QcyIX-ex_6rzBUD4a-54" target="UF6QcyIX-ex_6rzBUD4a-29" edge="1">
          <mxGeometry relative="1" as="geometry" />
        </mxCell>
        <mxCell id="UF6QcyIX-ex_6rzBUD4a-54" value="" style="rounded=0;whiteSpace=wrap;html=1;shadow=1;fontFamily=Courier New;fontSize=20;" parent="1" vertex="1">
          <mxGeometry x="865" y="275" width="255" height="50" as="geometry" />
        </mxCell>
        <mxCell id="UF6QcyIX-ex_6rzBUD4a-55" value="&lt;div style=&quot;font-size: 19px&quot;&gt;&lt;font style=&quot;font-size: 19px&quot;&gt;Data&lt;/font&gt;&lt;/div&gt;&lt;div style=&quot;font-size: 19px&quot;&gt;&lt;font style=&quot;font-size: 19px&quot;&gt;Serializer&lt;br&gt;&lt;/font&gt;&lt;/div&gt;" style="text;html=1;strokeColor=none;fillColor=none;align=center;verticalAlign=middle;whiteSpace=wrap;rounded=0;shadow=1;fontFamily=Courier New;fontSize=20;" parent="1" vertex="1">
          <mxGeometry x="880" y="275" width="220" height="50" as="geometry" />
        </mxCell>
        <mxCell id="UF6QcyIX-ex_6rzBUD4a-72" style="edgeStyle=orthogonalEdgeStyle;rounded=0;orthogonalLoop=1;jettySize=auto;html=1;exitX=0.5;exitY=0;exitDx=0;exitDy=0;entryX=0.5;entryY=1;entryDx=0;entryDy=0;fontFamily=Courier New;fontSize=17;strokeColor=#d79b00;strokeWidth=1;fontColor=#000000;fillColor=#ffe6cc;" parent="1" source="UF6QcyIX-ex_6rzBUD4a-57" target="UF6QcyIX-ex_6rzBUD4a-55" edge="1">
          <mxGeometry relative="1" as="geometry" />
        </mxCell>
        <mxCell id="UF6QcyIX-ex_6rzBUD4a-88" style="edgeStyle=orthogonalEdgeStyle;rounded=0;orthogonalLoop=1;jettySize=auto;html=1;fontFamily=Courier New;fontSize=17;startArrow=classic;startFill=1;strokeColor=#d79b00;strokeWidth=1;endArrow=none;endFill=0;fillColor=#ffe6cc;entryX=0.75;entryY=1.059;entryDx=0;entryDy=0;entryPerimeter=0;" parent="1" source="UF6QcyIX-ex_6rzBUD4a-57" target="UF6QcyIX-ex_6rzBUD4a-8" edge="1">
          <mxGeometry relative="1" as="geometry">
            <Array as="points">
              <mxPoint x="990" y="660" />
              <mxPoint x="665" y="660" />
            </Array>
            <mxPoint x="665" y="640" as="targetPoint" />
          </mxGeometry>
        </mxCell>
        <mxCell id="UF6QcyIX-ex_6rzBUD4a-89" style="edgeStyle=orthogonalEdgeStyle;rounded=0;orthogonalLoop=1;jettySize=auto;html=1;entryX=0.75;entryY=1;entryDx=0;entryDy=0;fontFamily=Courier New;fontSize=17;startArrow=classic;startFill=1;endArrow=none;endFill=0;strokeColor=#d79b00;strokeWidth=1;fillColor=#ffe6cc;exitX=0.316;exitY=0.983;exitDx=0;exitDy=0;exitPerimeter=0;" parent="1" source="UF6QcyIX-ex_6rzBUD4a-57" target="UF6QcyIX-ex_6rzBUD4a-4" edge="1">
          <mxGeometry relative="1" as="geometry">
            <mxPoint x="970" y="460" as="sourcePoint" />
            <Array as="points">
              <mxPoint x="961" y="460" />
              <mxPoint x="960" y="540" />
              <mxPoint x="665" y="540" />
            </Array>
          </mxGeometry>
        </mxCell>
        <mxCell id="UF6QcyIX-ex_6rzBUD4a-57" value="" style="rounded=1;whiteSpace=wrap;html=1;shadow=1;fontFamily=Courier New;fontSize=19;fillColor=#e1d5e7;strokeColor=#9673a6;" parent="1" vertex="1">
          <mxGeometry x="910" y="369" width="160" height="70" as="geometry" />
        </mxCell>
        <mxCell id="UF6QcyIX-ex_6rzBUD4a-87" value="&lt;font style=&quot;font-size: 14px;&quot;&gt;output_transfered&lt;/font&gt;" style="edgeStyle=orthogonalEdgeStyle;rounded=0;orthogonalLoop=1;jettySize=auto;html=1;fontFamily=Courier New;fontSize=14;startArrow=classic;startFill=1;strokeColor=#000000;strokeWidth=1;" parent="1" source="UF6QcyIX-ex_6rzBUD4a-58" edge="1">
          <mxGeometry x="0.7613" y="-16" relative="1" as="geometry">
            <mxPoint x="301" y="456" as="targetPoint" />
            <Array as="points">
              <mxPoint x="890" y="403" />
              <mxPoint x="890" y="456" />
            </Array>
            <mxPoint as="offset" />
          </mxGeometry>
        </mxCell>
        <mxCell id="UF6QcyIX-ex_6rzBUD4a-58" value="&lt;font style=&quot;font-size: 17px&quot;&gt;Output buffers&lt;/font&gt;" style="text;html=1;resizable=0;autosize=1;align=center;verticalAlign=middle;points=[];fillColor=none;strokeColor=none;rounded=0;shadow=1;fontFamily=Courier New;fontSize=19;" parent="1" vertex="1">
          <mxGeometry x="910" y="388" width="160" height="30" as="geometry" />
        </mxCell>
        <mxCell id="UF6QcyIX-ex_6rzBUD4a-64" value="" style="edgeStyle=orthogonalEdgeStyle;rounded=0;orthogonalLoop=1;jettySize=auto;html=1;fontFamily=Courier New;fontSize=17;strokeColor=#d6b656;strokeWidth=1;fillColor=#fff2cc;" parent="1" source="UF6QcyIX-ex_6rzBUD4a-59" target="UF6QcyIX-ex_6rzBUD4a-5" edge="1">
          <mxGeometry relative="1" as="geometry" />
        </mxCell>
        <mxCell id="UF6QcyIX-ex_6rzBUD4a-59" value="" style="rounded=1;whiteSpace=wrap;html=1;shadow=1;fontFamily=Courier New;fontSize=19;fillColor=#ffe6cc;strokeColor=#d79b00;" parent="1" vertex="1">
          <mxGeometry x="580" y="375" width="120" height="60" as="geometry" />
        </mxCell>
        <mxCell id="UF6QcyIX-ex_6rzBUD4a-60" value="&lt;div&gt;Input image&lt;/div&gt;&lt;div&gt;buffers&lt;br&gt;&lt;/div&gt;" style="text;html=1;resizable=0;autosize=1;align=center;verticalAlign=middle;points=[];fillColor=none;strokeColor=none;rounded=0;shadow=1;fontFamily=Courier New;fontSize=17;" parent="1" vertex="1">
          <mxGeometry x="575" y="379" width="130" height="50" as="geometry" />
        </mxCell>
        <mxCell id="UF6QcyIX-ex_6rzBUD4a-61" value="" style="rounded=1;whiteSpace=wrap;html=1;shadow=1;fontFamily=Courier New;fontSize=19;fillColor=#dae8fc;strokeColor=#6c8ebf;" parent="1" vertex="1">
          <mxGeometry x="710" y="375" width="140" height="60" as="geometry" />
        </mxCell>
        <mxCell id="UF6QcyIX-ex_6rzBUD4a-62" value="&lt;div&gt;Input weights&lt;/div&gt;&lt;div&gt;buffers&lt;br&gt;&lt;/div&gt;" style="text;html=1;resizable=0;autosize=1;align=center;verticalAlign=middle;points=[];fillColor=none;strokeColor=none;rounded=0;shadow=1;fontFamily=Courier New;fontSize=17;" parent="1" vertex="1">
          <mxGeometry x="705" y="379" width="150" height="50" as="geometry" />
        </mxCell>
        <mxCell id="UF6QcyIX-ex_6rzBUD4a-67" style="edgeStyle=orthogonalEdgeStyle;rounded=0;orthogonalLoop=1;jettySize=auto;html=1;exitX=0.25;exitY=1;exitDx=0;exitDy=0;fontFamily=Courier New;fontSize=19;strokeWidth=2;strokeColor=#6c8ebf;fillColor=#dae8fc;" parent="1" edge="1">
          <mxGeometry relative="1" as="geometry">
            <mxPoint x="775.0000000000001" y="325" as="sourcePoint" />
            <mxPoint x="775.34" y="375" as="targetPoint" />
            <Array as="points">
              <mxPoint x="775" y="345" />
              <mxPoint x="775" y="345" />
            </Array>
          </mxGeometry>
        </mxCell>
        <mxCell id="UF6QcyIX-ex_6rzBUD4a-77" value="" style="endArrow=classic;html=1;rounded=0;fontFamily=Courier New;fontSize=17;strokeColor=#000000;strokeWidth=1;startArrow=classic;startFill=1;" parent="1" edge="1">
          <mxGeometry width="50" height="50" relative="1" as="geometry">
            <mxPoint x="300" y="405" as="sourcePoint" />
            <mxPoint x="580" y="405" as="targetPoint" />
          </mxGeometry>
        </mxCell>
        <mxCell id="pqpbNf2QPN8KKRpt-aZ--1" value="&lt;font style=&quot;font-size: 14px&quot; face=&quot;Courier New&quot;&gt;image_generated&lt;/font&gt;" style="edgeLabel;html=1;align=center;verticalAlign=middle;resizable=0;points=[];" parent="UF6QcyIX-ex_6rzBUD4a-77" vertex="1" connectable="0">
          <mxGeometry x="-0.8612" y="-5" relative="1" as="geometry">
            <mxPoint x="53" y="-23" as="offset" />
          </mxGeometry>
        </mxCell>
        <mxCell id="UF6QcyIX-ex_6rzBUD4a-83" value="&lt;div style=&quot;font-size: 14px&quot;&gt;&lt;font style=&quot;font-size: 14px&quot;&gt;image_recieved&lt;/font&gt;&lt;/div&gt;&lt;div style=&quot;font-size: 14px&quot;&gt;&lt;font style=&quot;font-size: 14px&quot;&gt;kernels_recieved&lt;/font&gt;&lt;/div&gt;&lt;div style=&quot;font-size: 14px&quot;&gt;&lt;font style=&quot;font-size: 14px&quot;&gt;biases_recieved&lt;/font&gt;&lt;/div&gt;&lt;font style=&quot;font-size: 14px&quot;&gt;result_transfered&lt;/font&gt;" style="edgeStyle=orthogonalEdgeStyle;rounded=0;orthogonalLoop=1;jettySize=auto;html=1;fontFamily=Courier New;fontSize=17;strokeColor=#000000;strokeWidth=1;startArrow=classic;startFill=1;entryX=0;entryY=0.5;entryDx=0;entryDy=0;" parent="1" edge="1" target="UF6QcyIX-ex_6rzBUD4a-8">
          <mxGeometry x="-0.4492" y="-47" relative="1" as="geometry">
            <mxPoint x="300" y="613" as="sourcePoint" />
            <mxPoint x="590" y="577.3" as="targetPoint" />
            <mxPoint as="offset" />
          </mxGeometry>
        </mxCell>
        <mxCell id="UF6QcyIX-ex_6rzBUD4a-84" value="&lt;div&gt;image_recieved&lt;/div&gt;&lt;div&gt;result_transfered&lt;br&gt;&lt;/div&gt;" style="edgeStyle=orthogonalEdgeStyle;rounded=0;orthogonalLoop=1;jettySize=auto;html=1;fontFamily=Courier New;fontSize=14;strokeColor=#000000;strokeWidth=1;startArrow=classic;startFill=1;entryX=0;entryY=0.5;entryDx=0;entryDy=0;" parent="1" edge="1" target="UF6QcyIX-ex_6rzBUD4a-13">
          <mxGeometry x="-0.3571" y="-30" relative="1" as="geometry">
            <mxPoint x="300" y="740" as="sourcePoint" />
            <mxPoint x="550" y="690" as="targetPoint" />
            <mxPoint as="offset" />
          </mxGeometry>
        </mxCell>
        <mxCell id="UF6QcyIX-ex_6rzBUD4a-85" value="&lt;div style=&quot;font-size: 14px&quot;&gt;&lt;font style=&quot;font-size: 14px&quot;&gt;image_recieved&lt;/font&gt;&lt;/div&gt;&lt;div style=&quot;font-size: 14px&quot;&gt;&lt;font style=&quot;font-size: 14px&quot;&gt;kernels_recieved&lt;/font&gt;&lt;/div&gt;&lt;div style=&quot;font-size: 14px&quot;&gt;&lt;font style=&quot;font-size: 14px&quot;&gt;biases_recieved&lt;/font&gt;&lt;/div&gt;&lt;font style=&quot;font-size: 14px&quot;&gt;result_transfered&lt;/font&gt;" style="edgeStyle=orthogonalEdgeStyle;rounded=0;orthogonalLoop=1;jettySize=auto;html=1;fontFamily=Courier New;fontSize=14;strokeColor=#000000;strokeWidth=1;exitX=1.023;exitY=0.777;exitDx=0;exitDy=0;exitPerimeter=0;startArrow=classic;startFill=1;entryX=0;entryY=0.49;entryDx=0;entryDy=0;entryPerimeter=0;" parent="1" source="UF6QcyIX-ex_6rzBUD4a-1" target="UF6QcyIX-ex_6rzBUD4a-14" edge="1">
          <mxGeometry x="-0.4092" y="-40" relative="1" as="geometry">
            <mxPoint x="520" y="724.7999999999998" as="sourcePoint" />
            <mxPoint x="590" y="724.7999999999998" as="targetPoint" />
            <mxPoint as="offset" />
          </mxGeometry>
        </mxCell>
        <mxCell id="UF6QcyIX-ex_6rzBUD4a-86" value="&lt;div style=&quot;font-size: 14px&quot;&gt;&lt;font style=&quot;font-size: 14px&quot;&gt;image_recieved&lt;/font&gt;&lt;/div&gt;&lt;div style=&quot;font-size: 14px&quot;&gt;&lt;font style=&quot;font-size: 14px&quot;&gt;kernels_recieved&lt;/font&gt;&lt;/div&gt;&lt;div style=&quot;font-size: 14px&quot;&gt;&lt;font style=&quot;font-size: 14px&quot;&gt;biases_recieved&lt;/font&gt;&lt;/div&gt;&lt;font style=&quot;font-size: 14px&quot;&gt;result_transfered&lt;/font&gt;" style="edgeStyle=orthogonalEdgeStyle;rounded=0;orthogonalLoop=1;jettySize=auto;html=1;fontFamily=Courier New;fontSize=14;strokeColor=#000000;strokeWidth=1;startArrow=classic;startFill=1;entryX=0;entryY=0.5;entryDx=0;entryDy=0;entryPerimeter=0;exitX=0.998;exitY=0.948;exitDx=0;exitDy=0;exitPerimeter=0;" parent="1" source="UF6QcyIX-ex_6rzBUD4a-1" edge="1" target="UF6QcyIX-ex_6rzBUD4a-19">
          <mxGeometry x="-0.3989" y="-40" relative="1" as="geometry">
            <mxPoint x="310" y="920" as="sourcePoint" />
            <mxPoint x="600" y="794.8" as="targetPoint" />
            <Array as="points">
              <mxPoint x="320" y="920" />
            </Array>
            <mxPoint as="offset" />
          </mxGeometry>
        </mxCell>
        <mxCell id="jpAv9qoOsr3P9gTXgpo1-3" value="" style="endArrow=classic;html=1;rounded=0;fontFamily=Courier New;fontSize=14;fontColor=#000000;strokeWidth=1;exitX=0.75;exitY=1;exitDx=0;exitDy=0;fillColor=#ffe6cc;strokeColor=#d79b00;" edge="1" parent="1" source="UF6QcyIX-ex_6rzBUD4a-15">
          <mxGeometry width="50" height="50" relative="1" as="geometry">
            <mxPoint x="690" y="620" as="sourcePoint" />
            <mxPoint x="930" y="440" as="targetPoint" />
            <Array as="points">
              <mxPoint x="660" y="860" />
              <mxPoint x="925" y="860" />
            </Array>
          </mxGeometry>
        </mxCell>
      </root>
    </mxGraphModel>
  </diagram>
</mxfile>
